<svg width="1084" height="1194" viewBox="0 0 1084 1194" fill="none" xmlns="http://www.w3.org/2000/svg">
<path fill-rule="evenodd" clip-rule="evenodd" d="M112.92 1194L96.1505 1176H47.1505C39.9122 1176.13 32.6818 1175.45 25.5904 1174C19.8838 1172.66 15.3204 1170.47 11.9004 1167.41C8.359 1164.14 5.83194 1159.92 4.62043 1155.26C3.06713 1149.16 2.34726 1142.89 2.48045 1136.6V1100.49C2.36173 1094.2 3.08139 1087.93 4.62043 1081.84C5.81555 1077.09 8.34128 1072.79 11.9004 1069.43C15.3204 1066.29 19.8838 1064.01 25.5904 1062.58C31.2971 1061.15 38.4838 1060.44 47.1505 1060.45H91.5704C100.237 1060.45 107.424 1061.16 113.13 1062.58C118.837 1064 123.4 1066.28 126.82 1069.43C130.38 1072.79 132.905 1077.09 134.1 1081.84C135.64 1087.93 136.359 1094.2 136.24 1100.49V1136.6C136.24 1145.16 135.27 1152.16 133.33 1157.6C131.478 1162.91 127.771 1167.38 122.89 1170.18L144.96 1193.97L112.92 1194ZM110.18 1101.75C110.248 1098.7 109.932 1095.65 109.24 1092.68C108.729 1090.49 107.634 1088.48 106.07 1086.86C104.387 1085.27 102.279 1084.2 100 1083.78C96.8731 1083.16 93.6884 1082.87 90.5004 1082.93H48.4005C45.0465 1082.86 41.6946 1083.14 38.4005 1083.78C36.1207 1084.2 34.0105 1085.27 32.3204 1086.86C30.7699 1088.46 29.7264 1090.49 29.3204 1092.68C28.7509 1095.67 28.4929 1098.71 28.5505 1101.75V1131.53C28.5033 1135.36 28.7037 1139.19 29.1504 1143C29.3821 1145.53 30.2982 1147.95 31.8005 1150C33.3439 1151.82 35.4599 1153.05 37.8004 1153.51C41.2905 1154.22 44.8497 1154.54 48.4105 1154.45H90.5104C93.6946 1154.5 96.8764 1154.24 100.01 1153.68C102.272 1153.38 104.383 1152.37 106.041 1150.81C107.7 1149.24 108.823 1147.19 109.25 1144.95C109.944 1141.89 110.259 1138.76 110.19 1135.63V1101.74L110.18 1101.75ZM287.84 1150.35H207.07L190.46 1177.27H160.51L228.29 1069.45C230.217 1066.28 232.713 1063.5 235.65 1061.24C238.497 1059.06 242.604 1057.98 247.97 1057.99C253.224 1057.99 257.274 1059.07 260.12 1061.24C263.053 1063.5 265.548 1066.29 267.48 1069.45L334.91 1177.27H304.79L287.79 1150.4L287.84 1150.35ZM219.22 1130.35H275.69L247.45 1084.35L219.22 1130.35ZM489.81 1072.51C489.819 1074.56 489.375 1076.59 488.511 1078.46C487.647 1080.32 486.383 1081.97 484.81 1083.29L403 1155H492.85V1177.27H372.41C368.75 1177.27 365.96 1176.27 364.02 1174.11C362.016 1171.82 360.974 1168.85 361.11 1165.81C361.106 1163.67 361.581 1161.57 362.5 1159.64C363.419 1157.71 364.759 1156.02 366.42 1154.68L449.93 1082.97H363.85V1060.56H478.51C482.17 1060.56 484.96 1061.72 486.9 1064.06C488.856 1066.44 489.889 1069.45 489.81 1072.54V1072.51Z" fill="url(#paint0_linear_6712_63459)"/>
<path fill-rule="evenodd" clip-rule="evenodd" d="M525.098 1176.24V1154.35H612.978C617.611 1154.35 620.944 1153.68 622.978 1152.35C625.011 1151.01 626.011 1148.39 625.978 1144.46V1138.19C625.978 1134.57 624.978 1131.99 622.978 1130.47C620.978 1128.95 617.658 1128.18 613.138 1128.18H557.958C552.569 1128.3 547.189 1127.7 541.958 1126.4C538.188 1125.47 534.714 1123.6 531.858 1120.97C529.325 1118.45 527.536 1115.28 526.688 1111.81C525.661 1107.55 525.177 1103.19 525.248 1098.81V1093.04C525.147 1087.94 525.774 1082.86 527.108 1077.94C528.135 1074.14 530.122 1070.66 532.878 1067.85C535.745 1065.15 539.247 1063.23 543.058 1062.25C547.929 1060.97 552.953 1060.38 557.988 1060.47H593.988V1082.35H560.338C556.338 1082.35 553.458 1083.12 551.598 1084.64C549.738 1086.16 548.798 1089.25 548.798 1093.89V1097.62C548.798 1101.24 549.644 1103.81 551.338 1105.34C553.031 1106.87 555.974 1107.63 560.168 1107.63H614.278C619.781 1107.53 625.278 1108.07 630.658 1109.24C634.657 1110.09 638.402 1111.87 641.598 1114.42C644.454 1116.84 646.569 1120.01 647.698 1123.58C649.034 1127.92 649.666 1132.44 649.568 1136.98V1146.14C649.675 1150.82 649.044 1155.49 647.698 1159.97C646.582 1163.56 644.467 1166.77 641.598 1169.21C638.396 1171.77 634.656 1173.57 630.658 1174.47C625.287 1175.7 619.786 1176.27 614.278 1176.17L525.098 1176.24ZM712.748 1176.24V1082.76H664.178V1060.54H787.178V1082.76H738.648V1176.24H712.748ZM913.628 1149.6H833.508L817.098 1176.24H787.358L854.538 1069.36C856.45 1066.22 858.925 1063.46 861.838 1061.22C864.658 1059.07 868.738 1057.99 874.048 1057.99C879.358 1057.99 883.268 1059.07 886.048 1061.22C888.96 1063.46 891.431 1066.22 893.338 1069.36L960.178 1176.24H930.328L913.528 1149.6H913.628ZM845.628 1129.75H901.628L873.628 1084.12L845.628 1129.75ZM1008.85 1176.24V1082.76H960.328V1060.54H1083.33V1082.76H1034.81V1176.24H1008.85Z" fill="url(#paint1_linear_6712_63459)"/>
<path fill-rule="evenodd" clip-rule="evenodd" d="M857.826 475.812C836.606 495.146 814.476 513.382 791.436 530.522L788.366 532.812V269.152C788.366 196.582 728.986 137.202 656.426 137.202H268.206C195.636 137.202 136.206 196.582 136.206 269.202V657.362C136.206 729.932 195.586 789.362 268.206 789.362C288.776 789.362 309.336 790.032 329.896 790.902C349.606 791.752 369.306 792.792 389.026 793.512C426.436 794.892 464.186 795.152 501.336 789.872C529.256 785.872 556.216 778.872 582.146 767.632L583.336 767.122L676.826 860.612H672.146C645.399 860.399 618.652 860.266 591.906 860.212C554.572 860.079 517.239 859.969 479.906 859.882C433.239 859.769 386.572 859.672 339.906 859.592C315.999 859.552 292.089 859.516 268.176 859.482C156.926 859.482 66.1758 768.702 66.1758 657.482V269.152C66.1758 157.902 156.956 67.1523 268.176 67.1523H656.426C767.666 67.1523 858.426 157.932 858.426 269.152V475.242L857.806 475.812H857.826Z" fill="url(#paint2_linear_6712_63459)"/>
<path fill-rule="evenodd" clip-rule="evenodd" d="M268.205 0.542969H656.425C803.675 0.542969 924.155 121.033 924.155 268.283V407.283C903.299 430.927 881.187 453.433 857.915 474.703V268.283C857.915 157.593 767.115 66.783 656.425 66.783H268.205C157.515 66.783 66.7048 157.593 66.7048 268.283V656.503C66.7048 767.193 157.515 857.993 268.205 857.993H675.295L798.905 981.603H606.715L547.945 922.843C538.874 923.766 529.762 924.23 520.645 924.233H268.205C120.955 924.233 0.464844 803.753 0.464844 656.503V268.283C0.464844 121.033 120.955 0.542969 268.205 0.542969Z" fill="url(#paint3_linear_6712_63459)"/>
<path fill-rule="evenodd" clip-rule="evenodd" d="M1083.3 407.075C923.919 618.185 670.989 754.605 386.059 754.605C379.699 754.605 373.359 754.495 367.059 754.365C693.769 718.815 966.349 503.045 1083.33 208.555V407.075H1083.3Z" fill="url(#paint4_linear_6712_63459)"/>
<path fill-rule="evenodd" clip-rule="evenodd" d="M814.742 685.441C755.947 716.755 693.874 741.481 629.652 759.171L814.742 944.261V685.441Z" fill="url(#paint5_linear_6712_63459)"/>
<path fill-rule="evenodd" clip-rule="evenodd" d="M996.332 984.6H1083.33V468.84C1056.42 500.793 1027.35 530.863 996.332 558.84V984.6Z" fill="url(#paint6_linear_6712_63459)"/>
<path fill-rule="evenodd" clip-rule="evenodd" d="M851.684 984.603H958.234V590.703C924.067 618.37 887.942 643.529 850.145 665.983V983.063L851.684 984.603Z" fill="url(#paint7_linear_6712_63459)"/>
<defs>
<linearGradient id="paint0_linear_6712_63459" x1="70.1467" y1="974.443" x2="447.18" y2="974.44" gradientUnits="userSpaceOnUse">
<stop stop-color="#09437A"/>
<stop offset="1" stop-color="#4B8CC7"/>
</linearGradient>
<linearGradient id="paint1_linear_6712_63459" x1="642.694" y1="943.751" x2="1083.43" y2="863.292" gradientUnits="userSpaceOnUse">
<stop stop-color="#FA7D35"/>
<stop offset="1" stop-color="#FFCC00"/>
</linearGradient>
<linearGradient id="paint2_linear_6712_63459" x1="673.371" y1="403.054" x2="370.588" y2="841.292" gradientUnits="userSpaceOnUse">
<stop stop-color="#09437A"/>
<stop offset="1" stop-color="#4C8DC7"/>
</linearGradient>
<linearGradient id="paint3_linear_6712_63459" x1="140.207" y1="472.744" x2="850.429" y2="472.743" gradientUnits="userSpaceOnUse">
<stop stop-color="#09437A"/>
<stop offset="1" stop-color="#4B8CC7"/>
</linearGradient>
<linearGradient id="paint4_linear_6712_63459" x1="497.205" y1="673.464" x2="1062.75" y2="301.913" gradientUnits="userSpaceOnUse">
<stop stop-color="#FA7D35"/>
<stop offset="1" stop-color="#FFCC00"/>
</linearGradient>
<linearGradient id="paint5_linear_6712_63459" x1="640.215" y1="807.133" x2="786.354" y2="631.036" gradientUnits="userSpaceOnUse">
<stop stop-color="#FA7D35"/>
<stop offset="1" stop-color="#FFCC00"/>
</linearGradient>
<linearGradient id="paint6_linear_6712_63459" x1="890.936" y1="814.21" x2="959.64" y2="463.264" gradientUnits="userSpaceOnUse">
<stop stop-color="#FA7D35"/>
<stop offset="1" stop-color="#FFCC00"/>
</linearGradient>
<linearGradient id="paint7_linear_6712_63459" x1="776.258" y1="833.046" x2="861.601" y2="565.017" gradientUnits="userSpaceOnUse">
<stop stop-color="#FA7D35"/>
<stop offset="1" stop-color="#FFCC00"/>
</linearGradient>
</defs>
</svg>
